<?xml version="1.0" standalone="no"?>
<!DOCTYPE svg PUBLIC "-//W3C//DTD SVG 20010904//EN"
 "http://www.w3.org/TR/2001/REC-SVG-20010904/DTD/svg10.dtd">
<svg version="1.0" xmlns="http://www.w3.org/2000/svg"
 width="16.000000pt" height="16.000000pt" viewBox="0 0 16.000000 16.000000"
 preserveAspectRatio="xMidYMid meet">
<metadata>
Created by potrace 1.11, written by Peter Selinger 2001-2013
</metadata>
<g transform="translate(0.000000,16.000000) scale(0.010667,-0.010667)"
fill="#000000" stroke="none">
<path d="M1147 1167 c-3 -9 -60 -12 -246 -11 -276 1 -282 0 -428 -93 -43 -27
-107 -64 -143 -82 -137 -71 -236 -168 -294 -291 -28 -59 -31 -74 -31 -165 0
-66 4 -107 13 -120 l14 -20 -7 20 c-14 42 -17 136 -6 182 15 64 52 144 63 137
5 -3 8 -2 7 3 -4 22 2 34 14 27 6 -4 9 -4 5 1 -9 9 29 60 45 60 7 1 11 6 10
12 -1 6 9 19 23 29 14 11 38 29 52 41 15 13 32 23 39 23 6 0 13 3 15 8 3 8
109 62 121 62 4 0 16 8 26 17 28 26 130 86 146 86 8 0 12 4 10 7 -3 4 21 14
53 22 45 12 120 14 352 12 162 -1 304 -4 315 -7 11 -3 23 -6 27 -6 4 -1 13 -7
20 -14 17 -16 83 -57 93 -57 4 0 -10 12 -31 26 -21 15 -41 30 -44 34 -15 21
-101 44 -162 42 -15 0 -32 6 -39 14 -14 17 -25 18 -32 1z"/>
<path d="M1014 1115 c-8 -19 11 -42 49 -61 22 -12 27 -12 21 -2 -4 7 -16 19
-26 26 -28 21 -21 32 20 32 27 0 33 3 22 10 -24 15 -80 12 -86 -5z"/>
<path d="M1271 1081 c-21 -14 4 -22 33 -11 14 5 26 12 26 15 0 8 -44 5 -59 -4z"/>
<path d="M1475 1043 c1 -2 -10 -17 -25 -33 -18 -19 -41 -32 -66 -35 -108 -16
-126 -30 -128 -100 0 -36 -4 -44 -16 -39 -37 16 -88 22 -135 18 -139 -13 -147
-20 -144 -131 1 -43 -3 -96 -8 -118 -11 -46 -17 -243 -8 -233 4 3 9 38 11 77
5 95 12 139 21 154 4 6 8 55 8 107 0 92 1 95 26 107 14 7 64 15 111 18 72 4
90 2 124 -16 56 -29 81 -33 93 -11 6 12 5 23 -5 37 -18 24 -18 66 -1 89 10 13
32 21 76 25 54 5 65 10 79 33 15 25 15 29 1 42 -9 7 -15 12 -14 9z"/>
<path d="M821 711 c0 -7 -17 -49 -36 -91 -24 -52 -35 -93 -35 -122 0 -23 -2
-67 -6 -96 -4 -36 -2 -58 6 -65 6 -7 11 -7 10 -2 -2 6 -1 28 0 50 l2 40 24
-50 c14 -27 23 -42 20 -33 -4 15 -15 71 -30 161 -3 18 6 57 25 103 17 42 28
85 26 97 -2 12 -5 16 -6 8z"/>
<path d="M176 658 c-92 -12 -78 -17 41 -17 170 1 222 -20 230 -93 4 -35 -1
-55 -26 -103 -42 -83 -53 -141 -12 -65 52 94 69 134 67 155 -10 83 -35 110
-119 125 -55 11 -80 10 -181 -2z"/>
<path d="M530 563 c0 -7 5 -34 10 -61 12 -53 17 -88 20 -142 2 -34 2 -34 10
-8 10 33 6 101 -9 153 -12 43 -31 78 -31 58z"/>
<path d="M30 371 c0 -6 4 -13 10 -16 6 -3 7 1 4 9 -7 18 -14 21 -14 7z"/>
</g>
</svg>
